<?xml version="1.0" encoding="utf-8"?><svg viewBox="0 0 32 32" xmlns="http://www.w3.org/2000/svg" xmlns:xlink="http://www.w3.org/1999/xlink"><style>:root>svg{display:none}:root>svg:target{display:block}</style><svg fill="none" viewBox="0 0 24 24" id="arrow" xmlns="http://www.w3.org/2000/svg"><path d="M6.75 15.75 3 12m0 0 3.75-3.75M3 12h18" stroke="#A0A0A0" stroke-width="1.5" stroke-linecap="round" stroke-linejoin="round"/></svg><svg fill="none" viewBox="0 0 17 10" id="arrow2" xmlns="http://www.w3.org/2000/svg"><path d="m16 1.25-7.5 7.5L1 1.25" stroke="#3E4857" stroke-width="1.5" stroke-linecap="round" stroke-linejoin="round"/></svg><svg fill="none" viewBox="0 0 24 19" id="arrow3" xmlns="http://www.w3.org/2000/svg"><path d="M2.172 8.525a1.25 1.25 0 0 0 .027 2.5l-.027-2.5Zm21.111 1.906a1.25 1.25 0 0 0-.019-1.768L15.224.795a1.25 1.25 0 0 0-1.749 1.787l7.147 6.994-6.994 7.147a1.25 1.25 0 1 0 1.787 1.748l7.868-8.04ZM2.2 11.025l20.204-.219-.027-2.5-20.204.22.027 2.5Z" fill="#000"/></svg><svg fill="none" viewBox="0 0 25 24" id="chat" xmlns="http://www.w3.org/2000/svg"><path d="M5.025 2.838a49.642 49.642 0 0 1 6.594-.438c2.236 0 4.437.15 6.594.438 1.496.2 2.615 1.33 2.922 2.722a5.341 5.341 0 0 0-.692-.083 51.782 51.782 0 0 0-5.648 0c-2.901.158-4.976 2.596-4.976 5.32v2.688c0 1.696.804 3.282 2.112 4.275l-3.576 3.576A.9.9 0 0 1 6.82 20.7v-4.131c-.601-.058-1.2-.128-1.794-.207-1.766-.237-3.006-1.767-3.006-3.497v-6.53c0-1.73 1.24-3.26 3.006-3.497Z" fill="#6E7D8C"/><path d="M17.619 7.2c-.915 0-1.823.025-2.726.074-1.885.103-3.274 1.692-3.274 3.523v2.688c0 1.823 1.376 3.407 3.252 3.522.256.016.513.03.77.041.241.011.462.109.622.269l2.82 2.82a.9.9 0 0 0 1.536-.637v-2.485c1.743-.233 3-1.755 3-3.497v-2.72c0-1.832-1.389-3.42-3.274-3.524a49.98 49.98 0 0 0-2.726-.074Z" fill="#6E7D8C"/></svg><svg fill="none" viewBox="0 0 20 21" id="chat2" xmlns="http://www.w3.org/2000/svg"><path d="M16.875 7.593c.737.237 1.25.94 1.25 1.747v3.572c0 .947-.706 1.75-1.65 1.827-.283.023-.566.043-.85.06v2.576l-2.5-2.5a41.15 41.15 0 0 1-3.35-.136 1.76 1.76 0 0 1-.688-.202m7.788-6.944a1.773 1.773 0 0 0-.397-.08 40.537 40.537 0 0 0-6.706 0c-.943.079-1.647.881-1.647 1.827v3.571c0 .698.383 1.318.962 1.627m7.788-6.945V6.03c0-1.351-.96-2.522-2.3-2.696A40.38 40.38 0 0 0 9.375 3a40.38 40.38 0 0 0-5.2.335c-1.34.174-2.3 1.345-2.3 2.696v5.188c0 1.351.96 2.522 2.3 2.696.48.062.964.116 1.45.162V18l3.462-3.463" stroke="#6E7D8C" stroke-width="1.5" stroke-linecap="round" stroke-linejoin="round"/></svg><svg viewBox="0 0 448 512" id="check" xmlns="http://www.w3.org/2000/svg"><!--!Font Awesome Free 6.5.1 by @fontawesome - https://fontawesome.com License - https://fontawesome.com/license/free Copyright 2023 Fonticons, Inc.--><path fill="#fff" d="M438.6 105.4c12.5 12.5 12.5 32.8 0 45.3l-256 256c-12.5 12.5-32.8 12.5-45.3 0l-128-128c-12.5-12.5-12.5-32.8 0-45.3s32.8-12.5 45.3 0L160 338.7l233.4-233.3c12.5-12.5 32.8-12.5 45.3 0z"/></svg><svg fill="none" viewBox="0 0 25 24" id="clip" xmlns="http://www.w3.org/2000/svg"><path fill-rule="evenodd" clip-rule="evenodd" d="M19.565 5.254a3.6 3.6 0 0 0-5.092 0l-8.4 8.4a3.6 3.6 0 0 0 5.09 5.093l.002-.002.596-.6a.9.9 0 0 1 1.277 1.27l-.598.601-.003.002a5.4 5.4 0 0 1-7.636-7.636l8.4-8.4a5.4 5.4 0 0 1 7.641 7.632l-4.146 4.263a3.15 3.15 0 0 1-4.454-4.455l4.14-4.14a.9.9 0 0 1 1.273 1.272l-4.14 4.141a1.35 1.35 0 0 0 1.905 1.913l4.144-4.263a3.6 3.6 0 0 0 0-5.09Z" fill="#6E7D8C"/></svg><svg fill="none" viewBox="0 0 25 24" id="clock" xmlns="http://www.w3.org/2000/svg"><path fill-rule="evenodd" clip-rule="evenodd" d="M12.819 21.6a9.6 9.6 0 1 0 0-19.2 9.6 9.6 0 0 0 0 19.2Zm.75-15.6a.75.75 0 0 0-1.5 0v6c0 .414.336.75.75.75h4.8a.75.75 0 0 0 0-1.5h-4.05V6Z" fill="#6E7D8C"/></svg><svg viewBox="0 0 32 32" id="close" xmlns="http://www.w3.org/2000/svg"><defs><style>.icls-1{fill:none;stroke:#000;stroke-linecap:round;stroke-linejoin:round;stroke-width:2px}</style></defs><g id="icross"><path class="icls-1" d="m7 7 18 18M7 25 25 7"/></g></svg><svg viewBox="0 0 18 20" id="delete" xmlns="http://www.w3.org/2000/svg"><path fill-rule="evenodd" clip-rule="evenodd" d="M8.505.436a116.207 116.207 0 0 0 .26 0c.623 0 1.14-.001 1.586.146a2.8 2.8 0 0 1 1.767 1.72c.1.283.136.595.148.939h4.084a.9.9 0 1 1 0 1.8H.92a.9.9 0 1 1 0-1.8h4.084c.013-.344.049-.656.149-.94A2.8 2.8 0 0 1 6.92.583c.445-.147.962-.147 1.585-.146ZM6.807 3.24h3.657c-.008-.198-.022-.278-.044-.34a1 1 0 0 0-.635-.61c-.13-.043-.325-.055-1.15-.055-.824 0-1.019.012-1.15.055a1 1 0 0 0-.635.61c-.022.062-.035.142-.043.34Zm-4.55 2.812a.9.9 0 0 1 1.003.782l.937 7.569c.127 1.023.214 1.716.34 2.24.12.503.256.752.42.926.094.099.197.188.31.267.205.141.486.245 1.025.303.556.059 1.282.06 2.343.06 1.062 0 1.787-.001 2.344-.06.539-.058.82-.162 1.024-.303a1.96 1.96 0 0 0 .31-.267c.164-.174.3-.423.421-.926.126-.524.213-1.217.34-2.24l.936-7.569a.9.9 0 1 1 1.787.221l-.943 7.62c-.12.96-.217 1.754-.37 2.388-.16.666-.4 1.251-.862 1.741-.179.19-.377.361-.592.51-.551.383-1.169.54-1.86.614C10.505 20 9.684 20 8.683 20h-.098c-1 0-1.822 0-2.485-.07-.691-.074-1.309-.232-1.86-.615a3.763 3.763 0 0 1-.593-.51c-.462-.49-.702-1.075-.862-1.74-.152-.635-.25-1.43-.369-2.39l-.943-7.619a.9.9 0 0 1 .783-1.003Z"/></svg><svg fill="none" viewBox="0 0 18 18" id="delete2" xmlns="http://www.w3.org/2000/svg"><path d="m11.055 6.75-.26 6.75m-3.59 0-.26-6.75m7.476-2.407c.256.039.512.08.767.124m-.767-.124-.801 10.411c-.068.88-.8 1.559-1.683 1.559H6.063a1.688 1.688 0 0 1-1.683-1.559l-.8-10.411m10.84 0c-.86-.13-1.729-.23-2.607-.297m-9 .421c.254-.044.51-.085.766-.124m0 0c.86-.13 1.73-.23 2.608-.297m5.625 0v-.687c0-.885-.682-1.623-1.567-1.652a38.942 38.942 0 0 0-2.49 0c-.885.029-1.567.767-1.567 1.652v.687m5.625 0a36.504 36.504 0 0 0-5.626 0"/></svg><svg fill="none" viewBox="0 0 20 20" id="dots" xmlns="http://www.w3.org/2000/svg"><path d="M3 10a1.5 1.5 0 1 1 3 0 1.5 1.5 0 0 1-3 0ZM8.5 10a1.5 1.5 0 1 1 3 0 1.5 1.5 0 0 1-3 0ZM15.5 8.5a1.5 1.5 0 1 0 0 3 1.5 1.5 0 0 0 0-3Z" fill="#6E7D8C"/></svg><svg fill="none" viewBox="0 0 25 24" id="drag" xmlns="http://www.w3.org/2000/svg"><path d="M15.819 6.75a.75.75 0 1 1 0-1.5.75.75 0 0 1 0 1.5ZM15.819 12.75a.75.75 0 1 1 0-1.5.75.75 0 0 1 0 1.5ZM15.819 18.75a.75.75 0 1 1 0-1.5.75.75 0 0 1 0 1.5Z" fill="#677489"/><path d="M15.819 6.75a.75.75 0 1 1 0-1.5.75.75 0 0 1 0 1.5ZM15.819 12.75a.75.75 0 1 1 0-1.5.75.75 0 0 1 0 1.5ZM15.819 18.75a.75.75 0 1 1 0-1.5.75.75 0 0 1 0 1.5ZM9.819 6.75a.75.75 0 1 1 0-1.5.75.75 0 0 1 0 1.5ZM9.819 12.75a.75.75 0 1 1 0-1.5.75.75 0 0 1 0 1.5ZM9.819 18.75a.75.75 0 1 1 0-1.5.75.75 0 0 1 0 1.5Z" stroke="#6E7D8C" stroke-width="1.5" stroke-linecap="round" stroke-linejoin="round"/></svg><svg fill="none" viewBox="0 0 20 20" id="edit" xmlns="http://www.w3.org/2000/svg"><path d="m14.051 3.739 1.407-1.406a1.563 1.563 0 0 1 2.21 2.21l-8.85 8.848a3.75 3.75 0 0 1-1.58.943L5 15l.666-2.237a3.75 3.75 0 0 1 .943-1.582L14.05 3.74Zm0 0 2.199 2.198M15 11.667v3.958c0 1.035-.84 1.875-1.875 1.875h-8.75A1.875 1.875 0 0 1 2.5 15.625v-8.75C2.5 5.839 3.34 5 4.375 5h3.958" stroke="#A8B1BA" stroke-width="1.5" stroke-linecap="round" stroke-linejoin="round"/></svg><svg viewBox="0 0 25 24" id="file" xmlns="http://www.w3.org/2000/svg"><path d="M14.5 2h-8c-1.1 0-1.99.9-1.99 2L4.5 20c0 1.1.89 2 1.99 2H18.5c1.1 0 2-.9 2-2V8l-6-6Zm4 18h-12V4h7v5h5v11Zm-10-4.99 1.41 1.41 1.59-1.58V19h2v-4.16l1.59 1.59 1.41-1.42L12.51 11 8.5 15.01Z"/></svg><svg fill="none" viewBox="0 0 25 24" id="heart" xmlns="http://www.w3.org/2000/svg"><path d="M21.5 8.25c0-2.485-2.099-4.5-4.688-4.5-1.935 0-3.597 1.126-4.312 2.733-.715-1.607-2.377-2.733-4.313-2.733C5.6 3.75 3.5 5.765 3.5 8.25c0 7.22 9 12 9 12s9-4.78 9-12Z"/></svg><svg fill="none" viewBox="0 0 24 24" id="hearts" xmlns="http://www.w3.org/2000/svg"><path d="M14 6.727C14 5.221 12.717 4 11.135 4 9.953 4 8.937 4.682 8.5 5.656 8.063 4.682 7.047 4 5.864 4 4.284 4 3 5.221 3 6.727 3 11.103 8.5 14 8.5 14S14 11.103 14 6.727Z" fill="#0048F4"/><path d="M21 10.546C21 8.588 19.367 7 17.354 7c-1.505 0-2.798.887-3.354 2.153C13.444 7.887 12.151 7 10.645 7 8.633 7 7 8.588 7 10.546 7 16.233 14 20 14 20s7-3.766 7-9.454Z" fill="#0048F4" stroke="#fff" stroke-width="2" stroke-linecap="round" stroke-linejoin="round"/></svg><svg fill="none" viewBox="0 0 24 24" id="info" xmlns="http://www.w3.org/2000/svg"><path d="m11.25 11.25.041-.02a.75.75 0 0 1 1.063.852l-.708 2.836a.75.75 0 0 0 1.063.853l.041-.021M21 12a9 9 0 1 1-18 0 9 9 0 0 1 18 0Zm-9-3.75h.008v.008H12V8.25Z"/></svg><svg fill="none" viewBox="0 0 25 24" id="information" xmlns="http://www.w3.org/2000/svg"><path fill-rule="evenodd" clip-rule="evenodd" d="M22.419 12a9.6 9.6 0 1 1-19.2 0 9.6 9.6 0 0 1 19.2 0Zm-8.4-4.8a1.2 1.2 0 1 1-2.4 0 1.2 1.2 0 0 1 2.4 0Zm-2.4 3.6a.9.9 0 1 0 0 1.8h.304a.3.3 0 0 1 .293.365l-.551 2.48A2.1 2.1 0 0 0 13.715 18h.304a.9.9 0 0 0 0-1.8h-.304a.3.3 0 0 1-.293-.365l.551-2.48a2.1 2.1 0 0 0-2.05-2.555h-.304Z" fill="#6E7D8C"/></svg><svg fill="none" viewBox="0 0 24 24" id="link" xmlns="http://www.w3.org/2000/svg"><path d="M13.5 6H5.25A2.25 2.25 0 0 0 3 8.25v10.5A2.25 2.25 0 0 0 5.25 21h10.5A2.25 2.25 0 0 0 18 18.75V10.5m-10.5 6L21 3m0 0h-5.25M21 3v5.25" stroke="#6E7D8C" stroke-width="1.5" stroke-linecap="round" stroke-linejoin="round"/></svg><svg fill="none" viewBox="0 0 16 16" id="next" xmlns="http://www.w3.org/2000/svg"><g clip-path="url(#ua)"><path d="M8.583 10.333 10.917 8m0 0L8.583 5.667M10.917 8H5.083M15 8a7.002 7.002 0 0 1-9.679 6.467A7 7 0 1 1 15 8Z" stroke="#0048F4" stroke-linecap="round" stroke-linejoin="round"/></g><defs><clipPath id="ua"><path fill="#fff" d="M0 0h16v16H0z"/></clipPath></defs></svg><svg fill="none" viewBox="0 0 16 16" id="ok" xmlns="http://www.w3.org/2000/svg"><path d="m3 9 4 4 6-9" stroke="#1E293B" stroke-width="1.5" stroke-linecap="round" stroke-linejoin="round"/></svg><svg fill="none" viewBox="0 0 11 11" id="plus" xmlns="http://www.w3.org/2000/svg"><path d="M5.224 1.25v8.315M1.067 5.407H9.38"/></svg><svg fill="none" viewBox="0 0 16 16" id="time" xmlns="http://www.w3.org/2000/svg"><g clip-path="url(#xa)"><path d="M8 3.333V8h3.5M15 8a7.002 7.002 0 0 1-9.679 6.467A7 7 0 1 1 15 8Z" stroke="#677489" stroke-linecap="round" stroke-linejoin="round"/></g><defs><clipPath id="xa"><path fill="#fff" d="M0 0h16v16H0z"/></clipPath></defs></svg></svg>