<?xml version="1.0" encoding="utf-8"?><svg viewBox="0 0 32 32" xmlns="http://www.w3.org/2000/svg" xmlns:xlink="http://www.w3.org/1999/xlink"><style>:root>svg{display:none}:root>svg:target{display:block}</style><svg fill="none" viewBox="0 0 24 24" id="arrow" xmlns="http://www.w3.org/2000/svg"><path d="M6.75 15.75 3 12m0 0 3.75-3.75M3 12h18" stroke="#A0A0A0" stroke-width="1.5" stroke-linecap="round" stroke-linejoin="round"/></svg><svg fill="none" viewBox="0 0 17 10" id="arrow2" xmlns="http://www.w3.org/2000/svg"><path d="m16 1.25-7.5 7.5L1 1.25" stroke="#3E4857" stroke-width="1.5" stroke-linecap="round" stroke-linejoin="round"/></svg><svg viewBox="0 0 448 512" id="check" xmlns="http://www.w3.org/2000/svg"><!--!Font Awesome Free 6.5.1 by @fontawesome - https://fontawesome.com License - https://fontawesome.com/license/free Copyright 2023 Fonticons, Inc.--><path fill="#fff" d="M438.6 105.4c12.5 12.5 12.5 32.8 0 45.3l-256 256c-12.5 12.5-32.8 12.5-45.3 0l-128-128c-12.5-12.5-12.5-32.8 0-45.3s32.8-12.5 45.3 0L160 338.7l233.4-233.3c12.5-12.5 32.8-12.5 45.3 0z"/></svg><svg viewBox="0 0 32 32" id="close" xmlns="http://www.w3.org/2000/svg"><defs><style>.dcls-1{fill:none;stroke:#000;stroke-linecap:round;stroke-linejoin:round;stroke-width:2px}</style></defs><g id="dcross"><path class="dcls-1" d="m7 7 18 18M7 25 25 7"/></g></svg><svg fill="none" viewBox="0 0 25 24" id="heart" xmlns="http://www.w3.org/2000/svg"><path d="M21.5 8.25c0-2.485-2.099-4.5-4.688-4.5-1.935 0-3.597 1.126-4.312 2.733-.715-1.607-2.377-2.733-4.313-2.733C5.6 3.75 3.5 5.765 3.5 8.25c0 7.22 9 12 9 12s9-4.78 9-12Z"/></svg><svg fill="none" viewBox="0 0 24 24" id="hearts" xmlns="http://www.w3.org/2000/svg"><path d="M14 6.727C14 5.221 12.717 4 11.135 4 9.953 4 8.937 4.682 8.5 5.656 8.063 4.682 7.047 4 5.864 4 4.284 4 3 5.221 3 6.727 3 11.103 8.5 14 8.5 14S14 11.103 14 6.727Z" fill="#0048F4"/><path d="M21 10.546C21 8.588 19.367 7 17.354 7c-1.505 0-2.798.887-3.354 2.153C13.444 7.887 12.151 7 10.645 7 8.633 7 7 8.588 7 10.546 7 16.233 14 20 14 20s7-3.766 7-9.454Z" fill="#0048F4" stroke="#fff" stroke-width="2" stroke-linecap="round" stroke-linejoin="round"/></svg><svg fill="none" viewBox="0 0 24 24" id="info" xmlns="http://www.w3.org/2000/svg"><path d="m11.25 11.25.041-.02a.75.75 0 0 1 1.063.852l-.708 2.836a.75.75 0 0 0 1.063.853l.041-.021M21 12a9 9 0 1 1-18 0 9 9 0 0 1 18 0Zm-9-3.75h.008v.008H12V8.25Z"/></svg><svg fill="none" viewBox="0 0 16 16" id="next" xmlns="http://www.w3.org/2000/svg"><g clip-path="url(#ha)"><path d="M8.583 10.333 10.917 8m0 0L8.583 5.667M10.917 8H5.083M15 8a7.002 7.002 0 0 1-9.679 6.467A7 7 0 1 1 15 8Z" stroke="#0048F4" stroke-linecap="round" stroke-linejoin="round"/></g><defs><clipPath id="ha"><path fill="#fff" d="M0 0h16v16H0z"/></clipPath></defs></svg><svg fill="none" viewBox="0 0 16 16" id="ok" xmlns="http://www.w3.org/2000/svg"><path d="m3 9 4 4 6-9" stroke="#1E293B" stroke-width="1.5" stroke-linecap="round" stroke-linejoin="round"/></svg><svg fill="none" viewBox="0 0 16 16" id="time" xmlns="http://www.w3.org/2000/svg"><g clip-path="url(#ja)"><path d="M8 3.333V8h3.5M15 8a7.002 7.002 0 0 1-9.679 6.467A7 7 0 1 1 15 8Z" stroke="#677489" stroke-linecap="round" stroke-linejoin="round"/></g><defs><clipPath id="ja"><path fill="#fff" d="M0 0h16v16H0z"/></clipPath></defs></svg></svg>