<svg width="80" height="80" viewBox="0 0 80 80" fill="none" xmlns="http://www.w3.org/2000/svg">
<rect width="80" height="80" fill="#0A4EEB"/>
<mask id="path-1-inside-1_1_886" fill="white">
<path d="M23.6055 20.9962C23.4535 26.517 27.2186 35.101 42.9922 43.5385C59.2064 35.9821 63.4383 27.6183 63.5904 22.0975C63.7424 16.5768 59.3902 11.978 53.8695 11.826C48.3487 11.6739 44.8178 13.5774 43.7218 17.0486C42.8186 13.5224 39.3978 11.4274 33.8771 11.2753C28.3563 11.1233 23.7576 15.4755 23.6055 20.9962Z"/>
</mask>
<path d="M42.9922 43.5385L42.0489 45.3021L42.9307 45.7737L43.8371 45.3513L42.9922 43.5385ZM43.7218 17.0486L41.7844 17.5449C42.006 18.4099 42.7742 19.0232 43.6668 19.0478C44.5594 19.0724 45.3602 18.5023 45.629 17.6507L43.7218 17.0486ZM43.9356 41.775C28.4881 33.512 25.4825 25.4925 25.6048 21.0513L21.6063 20.9411C21.4245 27.5414 25.949 36.6901 42.0489 45.3021L43.9356 41.775ZM43.8371 45.3513C60.3866 37.6386 65.4078 28.7528 65.5896 22.1526L61.5911 22.0424C61.4688 26.4837 58.0263 34.3255 42.1474 41.7257L43.8371 45.3513ZM65.5896 22.1526C65.7721 15.5277 60.5495 10.0092 53.9246 9.82673L53.8144 13.8252C58.231 13.9469 61.7128 17.6258 61.5911 22.0424L65.5896 22.1526ZM53.9246 9.82673C48.0143 9.66394 43.3055 11.7246 41.8147 16.4464L45.629 17.6507C46.3301 15.4303 48.6832 13.6839 53.8144 13.8252L53.9246 9.82673ZM33.822 13.2746C38.9532 13.4159 41.2066 15.2891 41.7844 17.5449L45.6593 16.5523C44.4306 11.7556 39.8424 9.43887 33.9321 9.27608L33.822 13.2746ZM25.6048 21.0513C25.7264 16.6347 29.4054 13.1529 33.822 13.2746L33.9321 9.27608C27.3072 9.09361 21.7888 14.3162 21.6063 20.9411L25.6048 21.0513Z" fill="white" mask="url(#path-1-inside-1_1_886)"/>
<rect x="28.8926" y="36.3066" width="8" height="9.55818" transform="rotate(-31.1584 28.8926 36.3066)" fill="#0A4EEB"/>
<path d="M26.3224 37.1998L35.4091 31.4538C37.7157 29.9952 40.7579 30.5715 42.3712 32.7727V32.7727C43.9761 34.9624 43.6229 38.0189 41.561 39.7849L35.8224 44.6998C35.8224 49.5 34.5001 52.5 30.5 55.5014" stroke="white" stroke-width="2"/>
<path d="M14.5 42L27.5 30.5M31.5 68L46 54.5" stroke="white" stroke-width="2"/>
<rect x="39.3312" y="51.2403" width="11.2246" height="6.55846" rx="3.27923" transform="rotate(-31.5019 39.3312 51.2403)" fill="#0A4EEB" stroke="white" stroke-width="2"/>
<path d="M38 45.5C38 42.7 39.6667 41.6667 40.5 41.5C45 41 47.5 42 51 38.5C51 47 44.8333 48.1667 42.5 48.5C41 48.6667 38 48.3 38 45.5Z" fill="#0A4EEB" stroke="white" stroke-width="2"/>
</svg>
