<svg width="37" height="38" viewBox="0 0 37 38" fill="none" xmlns="http://www.w3.org/2000/svg">
<path d="M18.4609 1.56787C8.85866 1.56787 1.07446 9.35207 1.07446 18.9543C1.07446 28.5567 8.85866 36.3408 18.4609 36.3408C28.0633 36.3408 35.8474 28.5567 35.8474 18.9543C35.8474 9.35207 28.0633 1.56787 18.4609 1.56787Z" fill="black" stroke="black" stroke-width="1.91309"/>
<path d="M18.461 22.4179C22.4939 22.4179 25.7632 19.1486 25.7632 15.1157C25.7632 11.0828 22.4939 7.81348 18.461 7.81348C14.4281 7.81348 11.1588 11.0828 11.1588 15.1157C11.1588 19.1486 14.4281 22.4179 18.461 22.4179Z" fill="white"/>
<path fill-rule="evenodd" clip-rule="evenodd" d="M29.8174 30.1697C29.9236 30.3457 29.8911 30.571 29.7418 30.7119C26.7988 33.4922 22.829 35.1969 18.4608 35.1969C14.0928 35.1969 10.1229 33.4924 7.17997 30.7121C7.03064 30.571 6.99822 30.3459 7.10441 30.1699C9.22969 26.6497 13.5175 24.2437 18.461 24.2437C23.4042 24.2437 27.6921 26.6495 29.8174 30.1697Z" fill="white"/>
</svg>
