<svg width="256" height="92" viewBox="0 0 256 92" fill="none" xmlns="http://www.w3.org/2000/svg">
<path d="M255.107 12.3388C254.689 11.9211 254.159 11.633 253.581 11.5093C253.004 11.3856 252.402 11.4316 251.85 11.6416L200.768 30.9766H200.758C200.169 31.2031 199.664 31.606 199.313 32.1301C198.961 32.6542 198.78 33.2741 198.794 33.905C198.808 34.5359 199.016 35.1471 199.391 35.6551C199.765 36.1632 200.287 36.5433 200.885 36.7435L200.938 36.7601L218.47 44.2472C218.812 44.351 219.176 44.3633 219.524 44.2828C219.872 44.2024 220.193 44.032 220.455 43.7887L248.594 17.5681C248.678 17.4843 248.777 17.4178 248.887 17.3724C248.996 17.327 249.114 17.3037 249.232 17.3037C249.351 17.3037 249.468 17.327 249.578 17.3724C249.688 17.4178 249.787 17.4843 249.871 17.5681C249.955 17.652 250.021 17.7515 250.067 17.8611C250.112 17.9706 250.135 18.088 250.135 18.2066C250.135 18.3252 250.112 18.4426 250.067 18.5522C250.021 18.6617 249.955 18.7613 249.871 18.8451L223.65 46.9723C223.407 47.2341 223.236 47.5551 223.156 47.9033C223.075 48.2515 223.088 48.6148 223.191 48.9567L230.681 66.5001C230.688 66.5257 230.696 66.5487 230.705 66.5729C231.114 67.7567 232.148 68.5919 233.398 68.6481C233.453 68.6481 233.472 68.6481 233.526 68.6481C234.157 68.6517 234.775 68.4653 235.298 68.1132C235.822 67.7611 236.228 67.2596 236.463 66.6738L255.795 15.6041C256.008 15.0515 256.056 14.4491 255.934 13.8696C255.812 13.2901 255.524 12.7584 255.107 12.3388Z" fill="url(#paint0_linear_5527_4450)"/>
<path d="M5.07846 81.7288C126.977 101.525 191.754 61.2226 211.1 47.5947C211.473 47.3321 211.921 47.2805 212.353 47.4247L217.453 49.1248C217.863 49.2613 218.189 49.5753 218.34 49.9794L219.865 54.0452C220.09 54.6459 219.917 55.304 219.393 55.675C193.309 74.1661 113.867 105.244 5.07846 81.7288Z" fill="#4CBE57"/>
<defs>
<linearGradient id="paint0_linear_5527_4450" x1="247.419" y1="1.65605" x2="213.095" y2="58.8628" gradientUnits="userSpaceOnUse">
<stop stop-color="#00930F"/>
<stop offset="1" stop-color="#65CD6F"/>
</linearGradient>
</defs>
</svg>
